<svg width="13.000000" height="11.000000" viewBox="0 0 13 11" fill="none" xmlns="http://www.w3.org/2000/svg" xmlns:xlink="http://www.w3.org/1999/xlink">
	<desc>
			Created with Pixso.
	</desc>
	<defs/>
	<path id="" d="M8.22 10.92C7.71 11.05 7.25 11.01 6.83 10.78C6.4 10.55 6.11 10.2 5.96 9.72L5.81 9.23C5.71 8.9 5.55 8.62 5.33 8.37L4.01 6.97C3.79 6.69 3.8 6.42 4.06 6.16C4.36 5.93 4.65 5.94 4.92 6.18L6.22 7.58C6.57 7.96 6.83 8.4 6.98 8.91L7.13 9.4C7.27 9.73 7.52 9.86 7.89 9.79C8.23 9.66 8.37 9.42 8.3 9.06L8.15 8.57C8.01 8.07 7.79 7.62 7.49 7.22C7.35 7.02 7.33 6.81 7.43 6.6C7.55 6.4 7.73 6.3 7.97 6.28L11.37 6.28C11.62 6.27 11.76 6.13 11.78 5.89C11.76 5.71 11.67 5.59 11.52 5.52C11.32 5.44 11.19 5.3 11.14 5.1C11.09 4.91 11.13 4.73 11.27 4.59C11.34 4.51 11.37 4.42 11.37 4.32C11.35 4.1 11.24 3.97 11.04 3.92C10.82 3.88 10.67 3.75 10.58 3.56C10.52 3.34 10.55 3.15 10.68 2.99C10.74 2.93 10.76 2.84 10.76 2.75C10.74 2.57 10.66 2.44 10.51 2.38C10.19 2.23 10.06 1.99 10.13 1.66C10.14 1.63 10.15 1.6 10.15 1.57C10.13 1.32 10 1.19 9.75 1.17L7.28 1.17C6.94 1.17 6.64 1.26 6.37 1.44L4.79 2.45C4.47 2.61 4.19 2.56 3.96 2.28C3.77 1.97 3.83 1.7 4.13 1.47L5.68 0.46C6.17 0.15 6.71 0 7.28 0L9.75 0C10.2 0.01 10.58 0.16 10.89 0.44C11.19 0.73 11.35 1.09 11.37 1.52C11.76 1.83 11.96 2.24 11.98 2.75C11.98 2.86 11.97 2.97 11.95 3.06C12.36 3.38 12.57 3.79 12.59 4.32C12.59 4.48 12.56 4.64 12.51 4.78C12.82 5.08 12.98 5.45 13 5.89C12.98 6.33 12.82 6.7 12.51 6.99C12.21 7.29 11.83 7.44 11.37 7.46L9.03 7.46C9.15 7.72 9.25 7.98 9.34 8.25L9.47 8.74C9.6 9.23 9.55 9.68 9.31 10.09C9.08 10.5 8.71 10.78 8.22 10.92ZM0.81 8.64C0.57 8.64 0.38 8.57 0.22 8.42C0.07 8.27 0 8.08 0 7.85L0 2.35C0 2.12 0.07 1.94 0.22 1.79C0.38 1.64 0.57 1.57 0.81 1.57L2.43 1.57C2.67 1.57 2.86 1.64 3.02 1.79C3.17 1.94 3.25 2.12 3.25 2.35L3.25 7.85C3.25 8.08 3.17 8.27 3.02 8.42C2.86 8.57 2.67 8.64 2.43 8.64L0.81 8.64Z" fill="#040405" fill-opacity="1.000000" fill-rule="nonzero"/>
</svg>
