<svg width="13.000000" height="11.000000" viewBox="0 0 13 11" fill="none" xmlns="http://www.w3.org/2000/svg" xmlns:xlink="http://www.w3.org/1999/xlink">
	<desc>
			Created with Pixso.
	</desc>
	<defs/>
	<path id="" d="M7.94 10.97C7.6 11.03 7.3 10.98 7.03 10.8C6.76 10.62 6.59 10.36 6.52 10.04L6.47 9.77C6.28 8.93 5.84 8.24 5.15 7.7L4.97 7.56C4.38 7.08 4.07 6.47 4.06 5.72L4.06 2.99C4.07 2.16 4.44 1.5 5.15 1.03L6.11 0.39C6.52 0.13 6.98 0 7.49 0L9.95 0C10.29 0.01 10.57 0.13 10.81 0.34C11.03 0.57 11.15 0.85 11.17 1.17C11.17 1.26 11.16 1.34 11.14 1.42C11.67 1.62 11.95 1.99 11.98 2.55C11.98 2.78 11.92 2.98 11.8 3.16C12.09 3.21 12.33 3.34 12.51 3.55C12.7 3.77 12.79 4.02 12.79 4.32C12.78 4.69 12.62 5 12.33 5.22C12.76 5.45 12.98 5.81 13 6.28C12.98 6.61 12.86 6.89 12.64 7.11C12.4 7.33 12.11 7.44 11.78 7.46L8.12 7.46C8.48 8.03 8.72 8.64 8.86 9.3L8.91 9.59C8.97 9.92 8.92 10.22 8.73 10.48C8.54 10.74 8.28 10.9 7.94 10.97ZM0.81 8.64C0.57 8.64 0.38 8.56 0.22 8.42C0.07 8.27 0 8.08 0 7.85L0 2.35C0 2.12 0.07 1.93 0.22 1.79C0.38 1.64 0.57 1.57 0.81 1.57L2.43 1.57C2.67 1.57 2.86 1.64 3.02 1.79C3.17 1.93 3.25 2.12 3.25 2.35L3.25 7.85C3.25 8.08 3.17 8.27 3.02 8.42C2.86 8.56 2.67 8.64 2.43 8.64L0.81 8.64Z" fill="#FFFFFF" fill-opacity="0.950000" fill-rule="nonzero"/>
</svg>
