<svg width="13.000000" height="11.000000" viewBox="0 0 13 11" fill="none" xmlns="http://www.w3.org/2000/svg" xmlns:xlink="http://www.w3.org/1999/xlink">
	<desc>
			Created with Pixso.
	</desc>
	<defs/>
	<path id="" d="M5.73 10.69L5.66 10.64L1.21 6.54C0.42 5.79 0.01 4.86 0 3.77L0 3.7C0.01 2.79 0.3 2 0.86 1.33C1.4 0.68 2.12 0.26 3.02 0.08C4.07 -0.11 5.01 0.09 5.86 0.68C6.1 0.83 6.31 1.02 6.5 1.23C6.6 1.12 6.71 1.01 6.85 0.91C6.94 0.82 7.03 0.75 7.13 0.68C7.98 0.09 8.92 -0.12 9.97 0.05C10.87 0.24 11.59 0.66 12.13 1.33C12.69 2 12.98 2.79 13 3.7L13 3.77C12.98 4.86 12.57 5.79 11.78 6.54L7.33 10.64L7.26 10.69C7.04 10.89 6.78 11 6.5 11C6.21 11 5.95 10.89 5.73 10.69ZM6.06 2.57C6.06 2.57 6.05 2.56 6.04 2.54L5.58 2.04C5.28 1.7 4.92 1.47 4.51 1.33C4.11 1.2 3.69 1.17 3.25 1.26C2.65 1.38 2.17 1.66 1.8 2.11C1.43 2.55 1.23 3.08 1.21 3.7L1.21 3.77C1.23 4.51 1.51 5.14 2.05 5.66L6.5 9.76L10.94 5.66C11.48 5.14 11.76 4.51 11.78 3.77L11.78 3.7C11.76 3.08 11.56 2.55 11.19 2.11C10.82 1.66 10.34 1.38 9.75 1.26C9.3 1.17 8.88 1.2 8.48 1.33C8.07 1.47 7.71 1.7 7.41 2.04L6.95 2.54C6.95 2.54 6.94 2.55 6.93 2.57C6.81 2.68 6.66 2.74 6.5 2.74C6.33 2.74 6.18 2.68 6.06 2.57Z" fill="#040405" fill-opacity="1.000000" fill-rule="nonzero"/>
</svg>
