<svg width="13.000000" height="11.000000" viewBox="0 0 13 11" fill="none" xmlns="http://www.w3.org/2000/svg" xmlns:xlink="http://www.w3.org/1999/xlink">
	<desc>
			Created with Pixso.
	</desc>
	<defs/>
	<path id="" d="M1.21 6.47C0.42 5.73 0.01 4.82 0 3.73L0 3.58C0.01 2.68 0.3 1.91 0.86 1.27C1.42 0.61 2.14 0.2 3.02 0.04C3.61 -0.05 4.18 0 4.74 0.16C5.28 0.33 5.77 0.62 6.19 1.04L6.5 1.34L6.8 1.04C7.22 0.62 7.71 0.33 8.25 0.16C8.81 0 9.38 -0.05 9.97 0.04C10.85 0.2 11.57 0.61 12.13 1.27C12.69 1.91 12.98 2.68 13 3.58L13 3.73C12.98 4.82 12.57 5.73 11.78 6.47L7.21 10.72C7 10.9 6.77 11 6.5 11C6.22 11 5.99 10.9 5.78 10.72L1.21 6.47Z" fill="#FFFFFF" fill-opacity="0.950000" fill-rule="nonzero"/>
</svg>
